<?xml version="1.0" encoding="UTF-8"?>
<!DOCTYPE svg PUBLIC "-//W3C//DTD SVG 1.1//EN" "http://www.w3.org/Graphics/SVG/1.1/DTD/svg11.dtd">
<!-- Creator: CorelDRAW 2021 (64-Bit) -->
<svg xmlns="http://www.w3.org/2000/svg" xml:space="preserve" width="2.74621in" height="2.74621in" version="1.1" style="shape-rendering:geometricPrecision; text-rendering:geometricPrecision; image-rendering:optimizeQuality; fill-rule:evenodd; clip-rule:evenodd"
viewBox="0 0 1336.6 1336.6"
 xmlns:xlink="http://www.w3.org/1999/xlink"
 xmlns:xodm="http://www.corel.com/coreldraw/odm/2003">
 <defs>
  <style type="text/css">
   <![CDATA[
    .str0 {stroke:black;stroke-width:3.38;stroke-linecap:round;stroke-linejoin:round;stroke-miterlimit:2.61313}
    .fil0 {fill:#000012}
    .fil1 {fill:white}
   ]]>
  </style>
 </defs>
 <g id="Layer_x0020_1">
  <metadata id="CorelCorpID_0Corel-Layer"/>
  <circle class="fil0 str0" cx="668.3" cy="668.3" r="666.61"/>
  <g id="_2441809514960">
   <path class="fil1" d="M561.03 986.87c0,-2.87 -0.29,-6.48 0.33,-9.2 0.37,-1.66 0.69,-1.53 1.03,-2.79 0.81,-3.02 -0.33,-3.04 1.64,-5.6 2.13,-2.78 3.3,-6.56 5.34,-9.52 1.33,-1.94 5.12,-6.31 6.91,-7.57 1.5,-1.06 2.64,-1.92 4.11,-3.13 1.58,-1.3 2.83,-1.96 4.45,-3.18 1.41,-1.06 0.57,-0.8 1.68,-1.75l15.95 -9.96 7.74 -2.93c2.82,-0.92 4.9,-2.56 7.84,-3.21 3.66,-0.8 7.46,-2.67 11.43,-3.43l14.51 -3.79c7.99,-2.63 16.53,-2.52 24.49,-4.86 1.06,-0.31 1.77,-0.53 3.1,-0.71 4.49,-0.62 8.29,-1.02 12.48,-2 4.09,-0.97 9.12,-0.67 13.42,-1.44 2.06,-0.37 4.23,-0.51 6.42,-0.82 2.11,-0.3 4.14,-0.89 6.32,-1.3l11.71 -1.16c1.87,-0.03 -0.39,0.23 1.46,0.23 1.93,0 3.1,-0.7 5.33,-0.76 2.25,-0.06 3.4,-0.4 5.71,-0.39l45.35 -1.52c7.76,0.01 18.12,-0.65 24.87,0.28 4.92,0.67 11.84,-0.16 16.74,0.41 5.5,0.64 4.77,2.25 6,11.15 0.38,2.73 0.77,4.56 1.27,7.11l3.32 39.74c-0.03,5.22 1.15,12.82 1.15,16 0,13.61 0.89,8.51 -9.16,12.94 -0.92,0.4 -1.44,0.59 -2.35,1.08 -1.76,0.95 -6.36,1.71 -8.8,2.64 -6.29,2.4 -13.24,3.82 -19.44,6.47 -1.22,0.53 -1.23,0.72 -2.77,1.04 -3.3,0.69 -2.22,0.15 -5.9,1.34l-26.49 7.05c-1,0.3 -1.75,0.72 -2.79,1.02l-5.7 1.53c-3.98,0.66 -7.82,2.1 -11.74,3.12 -0.94,0.25 -2.17,0.38 -2.89,0.54 -1.11,0.25 -2.12,0.54 -3.01,0.8 -5.62,1.65 -7.34,1.69 -11.98,2.88 -8.2,2.1 -17.01,2.95 -25.27,4.45 -1.96,0.35 -3.58,1.1 -5.86,1.38l-19.99 2.49c-1.91,0.39 -4.46,0.15 -6.74,0.49l-13.56 1.3c-6.35,0.15 -23.84,1.18 -28.68,-0.27 -1.78,-0.54 -8.22,-0.97 -12.9,-1.96 -4.83,-1.02 -6.87,-1.77 -11.33,-3.53 -0.85,-0.34 -1.76,-0.68 -2.64,-1.17l-11.64 -7.03c-1.73,-1.07 -2.54,-2.34 -4.32,-3.3 -1.37,-0.74 -5.39,-3.95 -6.21,-5.23 -0.56,-0.88 -0.48,-1.39 -1.31,-2.5 -1.41,-1.9 -1.91,-1.52 -3.17,-4.08 -1.06,-2.16 -3.19,-5.46 -3.78,-7.66 -0.86,-3.23 -1.68,-6.2 -1.68,-9.75zm316.66 -12.96c-3.09,1.53 -10.61,3.6 -12.89,4.64 -3.3,1.51 -0.5,0.69 -4.6,1.5l-8.1 3.33c-3.66,1.46 -1.94,1.58 -6.04,1.58 -1.99,0 -1.41,-2.22 -1.63,-4.08l-0.66 -10.01c-0.06,-2.17 -0.11,-3.34 -0.3,-5.03 -0.38,-3.34 -0.62,-6.88 -0.85,-10.21l-0.8 -9.87c-0.3,-2.93 -0.79,-6.84 -1.06,-9.99 -0.28,-3.37 -0.64,-6.49 -0.8,-9.87 -0.08,-1.68 -1.04,-6.11 -1.13,-9.92 -0.23,-9.25 -3.94,-8.38 8.38,-8.38 1.92,0 2.34,0.64 3.96,0.99 1.44,0.31 2.91,0.05 4.4,0.17 5.37,0.43 13.47,-0.02 17.2,1.09l36.96 4.19c4.1,0.3 1.79,0.26 3.89,0.68 2.61,0.53 5.99,0.53 8.64,0.89l7.7 1.44c2.73,0.39 5.56,0.79 8.05,1.1 3.2,0.4 5.26,0.76 7.95,1.2 2.62,0.43 4.94,0.89 7.73,1.42 2.72,0.52 5.04,0.9 7.69,1.46 2.69,0.57 5.28,0.64 8.06,1.09 1.14,0.19 2.61,0.73 3.63,0.94 1.58,0.32 2.5,0.29 3.71,0.87 -0.29,1.07 -0.3,1.11 -1.32,1.73 -0.39,0.23 -0.57,0.26 -1.02,0.5 -0.11,0.06 -0.76,0.47 -0.93,0.59 -5.5,3.93 -9.25,4.54 -15.17,8.45l-7.46 4.35c-0.58,0.28 -1.46,0.6 -2.09,0.96 -0.93,0.52 -0.55,0.51 -1.62,1.05 -1.02,0.51 -1.07,0.31 -2.07,0.98 -1.04,0.71 -0.58,0.58 -1.9,1.15l-28.46 12.7c-1.98,0.68 -0.62,0.67 -3.99,2.1l-12.3 5.23c-3.77,1.06 -5.27,2.2 -8.17,3.65l-12.58 5.33zm-1.9 -195.87c2.34,0 4.06,-0.79 7.23,-0.77 2.22,0.01 5.46,0.19 7.57,-0.05 5.84,-0.66 13.18,0.02 19.49,-0.32 1.67,-0.09 1.59,-0.34 3.41,-0.4 2.47,-0.07 5.09,0.22 7.47,-0.15 3.23,-0.5 4.05,0.17 7.01,0.17 4.83,0.01 26.69,0.54 30.19,1.06 4.88,0.73 9.46,0.71 14.37,1.25 2.24,0.25 4.22,0.97 6.52,1.1 3.68,0.21 6.32,1.39 9.63,1.81 3.68,0.46 3.49,0.77 6.59,1.41 1.27,0.26 2.17,0.14 3.45,0.36l12.49 3.13c2.08,0.52 10.21,2.7 12.03,3.59 4.92,2.43 5.44,2.11 10.56,4.69 6.54,3.3 4.33,1.87 9.97,5.65 1.12,0.75 1.12,0.9 2.09,1.72 0.89,0.75 1.23,0.86 2.09,1.72l7.37 8.25c0.7,0.94 1.23,1.47 1.85,2.34 4.14,5.75 6.1,13.29 6.1,20.58 0,8.87 -1.95,12.17 -4.19,19.82 -0.59,2.02 -3.78,7.7 -4.91,9.19 -0.72,0.96 -0.42,0.44 -1.03,1.64l-1.07 1.6c-0.05,0.06 -0.13,0.14 -0.19,0.19 -0.05,0.06 -0.13,0.14 -0.19,0.2l-8.54 9.37c-0.45,0.44 -0.72,0.68 -1.12,1.16 -0.59,0.72 -0.39,0.65 -0.98,1.31 -1.23,1.37 -2.8,1.84 -4.34,3.67 -0.52,0.61 -0.16,0.22 -0.55,0.59 -0.96,0.94 -1.48,1.41 -2.48,2.48 -1.41,1.5 -2.88,1.2 -4.04,3.2 -1.36,2.34 -4.21,3.86 -6.35,5.46l-10.71 7.96c-1.16,0.73 -1.2,1.11 -2.67,1.9l-8.93 5.55c-4.01,3.27 -3.48,1.6 -5.3,3.85 -1.53,1.89 -3.63,1.64 -5.98,1.64l-8.34 -2.72c-2.83,-0.91 -5.61,-1.61 -9.21,-1.85 -3.32,-0.21 -6.28,-0.79 -9.18,-1.87 -4.29,-1.58 -13.81,-2.88 -18.31,-3.41 -2.25,-0.26 -3.01,-0.56 -4.9,-0.82 -1.54,-0.21 -3.09,-0.31 -4.73,-0.61 -5.07,-0.9 -14.19,-2.72 -18.76,-2.92 -1.33,-0.06 -2.43,-0.14 -4.48,-0.52 -1.67,-0.31 -2.93,-0.53 -4.56,-0.77 -5.38,-0.78 -5.27,0.24 -12.85,-1.25 -0.84,-0.16 -1.67,-0.31 -2.3,-0.37 -1.71,-0.18 -3.45,0.07 -5.18,-0.15 -8.36,-1.08 -9.36,-1.79 -19.17,-1.79 -5.27,0 -9.74,-1.81 -15.04,-1.4 -4.22,0.32 -10.71,-0.52 -15.05,-0.52 -1.19,-2.24 -1.43,-2.77 -1.53,-6.1 -0.15,-5.16 -1.4,-8.43 -1.84,-12.64l-7.46 -47.79c-0.25,-1.2 -0.16,-1.87 -0.32,-3.11 -0.63,-4.82 -2.74,-12.19 -3.71,-18.02l-1.38 -5.86c-0.21,-1.39 -0.01,-2.2 -0.41,-3.4 -1.13,-3.32 -2.28,-3.72 7.24,-6.25 2.1,-0.56 2.74,-1.39 4.78,-2.08l12.18 -3.82c3.79,-1.65 8.39,-2.52 12.22,-4.16 6.08,-2.6 6.82,-3.75 14.18,-4.14 1.75,-0.09 2.08,0.37 4.16,0.37zm-143.28 31.63c-4.03,0 2.57,-3.93 2.76,-4.1 3.79,-3.36 9.78,-4.92 11.85,-6.06 3.6,-2 16.19,-5.95 20.06,-6.62 2.57,-0.44 7.4,-1.08 9.77,-2.04 2.23,-0.91 1.58,-0.81 4.51,-1.21 0.99,-0.13 1.75,-0.17 2.65,-0.4 0.99,-0.25 1.26,-0.5 2.31,-0.74l15.46 -2.07c2.93,0 2.07,-0.1 2.67,0.76 -2.38,0 -3.24,0.37 -4.87,1.23l-36.66 13.26c-0.77,0.23 -1.21,0.31 -2.06,0.61l-17.42 5.83 -11.01 1.56zm-195.48 -185.58c0,2.08 1.74,6.51 2.96,8.09 2.26,2.94 8.62,-1.34 12.12,-2.92l8.56 -4.4c1.01,-0.53 2.36,-0.66 3.67,-1.28l10.65 -4.97c3.09,-1.07 15.07,-8.15 20.66,-10.21l12.79 -5.12c1.34,-0.63 0.62,-0.24 2.03,-0.64 1.53,-0.44 1.64,-1.07 3.32,-1.63l11.28 -4.34c1.69,-0.9 5.71,-2.08 7.68,-2.61 4.16,-1.11 5.19,-1.91 7.58,-2.71 2.67,-0.89 4.92,-2.28 7.28,-3.01 1.44,-0.45 2.46,-0.53 3.89,-1.06 3.95,-1.47 0.41,-1.1 7.24,-2.67 1.57,-0.36 2.63,-0.7 4.17,-1.16l15.94 -4.64c1.51,-0.37 2.6,-0.56 4.13,-0.82l8.15 -2.14c1.61,-0.42 3,-0.5 4.42,-0.91 1.83,-0.52 1.58,-1.05 3.8,-1.16 2.21,-0.11 2.78,-0.1 4.71,-0.63 5.74,-1.57 11.74,-1.69 17.61,-2.97 3.14,-0.68 5.49,-1.26 8.94,-1.35 4.75,-0.11 12.47,-1.87 18.68,-1.9 3.07,-0.01 6.16,-1.01 9.13,-1.16 3.58,-0.18 6.2,-0.32 9.92,-0.37 2.12,-0.02 2.43,-0.39 4.54,-0.41 1.69,-0.02 3.68,0.13 5.33,-0l6.93 -0.14c1.01,0.03 0.78,-0.22 2.24,-0.22 6.3,0 11.36,0.57 17.54,0.75l61.76 7.6c3.54,0.99 8.48,0.5 11.79,1.93 1.32,0.57 2.01,0.69 3.81,0.77 2.68,0.12 2,0.44 3.84,1.11 2.86,1.05 11,1.67 15.22,3.07l10.73 2.99c3.56,0.96 7.27,1.85 10.59,3.51 1.96,0.98 4.91,1.46 6.92,2.23l12.9 5.77c2,1.05 4,2.03 6.04,3.1 4.79,2.51 10.9,4.27 15.19,7.68 3.04,2.42 4.53,3.19 7.83,6.27l4.76 4.39c1.01,0.97 1.6,1.11 2.49,2.08 0.64,0.7 1.38,1.73 2.02,2.56 1.43,1.86 3.3,2.82 4.83,4.69l4.69 6.74c0.39,0.59 0.48,0.87 0.81,1.47 3.05,5.53 4.14,6.8 5.13,13.55 0.88,6.01 0.71,4.48 0.71,11.11 0,6.77 -1.87,12.71 -4.77,18.09 -3.05,5.64 -2.37,5.72 -7.09,11.96l-10.45 12.79c-1.36,1.42 -2.24,1.3 -3.54,2.95 -0.93,1.18 -1.32,1.09 -2.21,1.98 -0.85,0.85 -0.84,1.4 -1.97,2.22 -1.44,1.05 -1.17,0.29 -2.36,1.84 -1.12,1.45 -5.24,4.4 -6.96,5.61l-4.97 3.41c-3.91,2.12 -7.14,5.42 -11,7.67 -0.6,0.35 -0.95,0.48 -1.48,0.81 -2.6,1.64 -5.26,3.56 -8.07,4.89 -2.01,0.95 -3.29,2.19 -5.37,3.01l-13.69 7.27c-1.14,0.74 -1.72,0.67 -2.86,1.33l-8.33 4.25c-4.02,1.88 -7.91,3.14 -11.64,5.51l-17.21 7.94c-1.29,0.69 -2.1,0.5 -3.38,0.81 -2.19,0.52 -4.82,2.56 -9.46,3.5l-31.01 2.9c-3.3,0.58 -11.36,3.58 -13.81,1.23 -0.68,-0.65 -0.78,-2.01 -1.15,-3.06 -0.56,-1.57 -0.64,-1.36 -0.89,-3.31l-1.44 -6.94c-0.27,-1.67 -0.55,-2.06 -0.77,-3.42l-1.53 -6.85c-0.37,-1.17 -0.48,-2.19 -0.84,-3.35 -0.84,-2.69 -1.36,-3.88 -1.86,-6.9 -0.37,-2.24 -0.99,-4.84 -1.42,-6.96l-1.68 -6.71c-0.22,-1.29 -0.54,-2.06 -0.86,-3.34 -0.31,-1.27 -0.31,-2.43 -0.61,-3.58l-9.08 -33.59c-0.34,-1.26 -0.53,-2.19 -0.83,-3.36 -0.95,-3.66 -2.17,-5.83 -2.95,-9.63 -0.91,-4.44 -2.54,-8.55 -3.69,-13.07 -0.8,-3.13 -3.09,-8.24 -4.12,-12.65 -0.38,-1.63 -0.77,-1.53 -1.2,-2.99 -0.42,-1.42 -0.2,-1.96 -0.77,-3.42 -1.67,-4.32 -2.58,-8.66 -4.12,-13.02l-2.35 -6.03c-0.85,-2.63 -0.83,-4.16 -1.49,-6.9 -0.43,-1.8 -1.58,-4.4 -2.18,-6.58 -1.31,-4.73 -2.74,-8.27 -3.54,-13.23l-1.46 -6.92c-0.82,-2.76 -0.94,-3.65 -2.62,-6.15 -4.44,2.35 -9.94,0.79 -9.62,5.38 0.76,10.7 2.43,12.03 3.68,19.99 0.42,2.64 1.13,4.27 1.67,6.33l1.76 6.24c0.54,2.23 1.49,3.88 2.05,5.95 0.81,3.03 0.39,3.24 1.98,5.64 1.42,2.15 1.16,3.36 2.03,5.97 0.69,2.07 1.48,3.72 2.27,5.73 0.77,1.94 1.31,3.98 1.99,6.01 2,5.96 3.39,12.09 5.46,18.16l4.35 15.09c1.53,7.47 4.07,14.72 5.57,22.25l3.51 12.49c0.58,2.01 0.95,4.26 1.56,6.44 0.52,1.87 0.91,4.15 1.44,6.18 0.76,2.93 1.22,6.32 2.45,9.37 1.86,4.65 0.79,2.42 1.82,6.18 0.28,1 0.65,1.94 0.91,3.28l3.26 16.17c0.39,2.61 1.68,4.64 2.21,10.05 0.29,3.01 -2.17,2.6 -4.23,3.28 -5.43,1.82 -7.65,1.69 -13.6,2.41 -1.89,0.23 -4.86,0.68 -6.77,1.24 -1.23,0.36 -1.7,0.43 -3.04,0.77 -7.39,1.86 -15.02,3.29 -22.13,5.69 -4.87,1.64 -19.12,7.37 -22.17,9.46 -6.37,4.35 -12.69,9.69 -13.73,17.9 -0.45,3.56 -0.69,3.41 0.69,6.06 3.11,5.97 12.52,4.22 18.76,4.31 3.48,0.05 9.02,-1.75 12.79,-2.52 3,-0.61 6.18,-1.94 9.15,-2.66 1.01,-0.25 2.61,-0.25 3.59,-0.61 2.68,-0.96 0.62,-0.58 5.62,-2l14.72 -5.1c1.08,-0.53 1.9,-0.67 3.07,-1.12l16.87 -7.14c2.29,-0.78 3.5,-1.85 6.15,-1.85l1.36 5.5c0.79,3.8 0.66,7.84 1.85,11.87l1.27 5.59c0.49,1.98 0.63,3.86 0.88,5.98 0.16,1.38 0.41,1.74 0.64,2.79 1.49,6.95 1.81,13.91 3.88,20.51 0.9,2.87 4.49,27.21 4.61,30.06 0.18,4 2.06,8.24 1.14,12.2 -1.7,0 -2.49,0.17 -3.55,0.29 -1.5,0.16 -1.86,-0.21 -3.31,-0.29 -2.47,-0.14 -5.48,-0.01 -8.01,0 -2.9,0.01 -4.77,-0.52 -7.25,-0.38 -2.99,0.17 -5.81,0.44 -8.93,0.16l-26.49 0.61c-2.03,0.07 -3.73,-0.28 -5.01,-0.33 -1.57,-0.06 -2.39,0.7 -4.53,0.7 -2.83,0 -5.39,-0.47 -8.14,0.24 -4.08,1.05 -9.09,0.68 -13.2,0.9l-13.17 0.93c-4.5,0.64 -14.17,0.98 -17.01,1.66 -3.02,0.72 -4.87,0.56 -8.25,0.9 -2.77,0.28 -5.34,1.13 -8.11,1.42 -5.74,0.6 -11.18,0.75 -16.88,1.79 -5.32,0.96 -10.43,2.26 -15.72,2.95l-13.17 2.84c-0.85,0.23 -1.45,0.28 -2.2,0.47 -1.73,0.43 -1.76,0.79 -3.27,1.3 -1.17,0.39 -2.43,0.75 -3.51,1.06l-7.69 1.84c-2.4,0.61 -4.23,1.91 -6.55,2.59l-7.32 2.21c-2.37,0.92 -4.29,1.63 -6.4,2.75 -2.24,1.18 -4.52,1.75 -6.78,2.75 -5.16,2.3 -10.31,5.05 -15.22,8.03 -1.16,0.7 -1.71,0.89 -3.01,1.56l-10.84 7.84 -6.85 7.25c-0.97,1.1 -0.85,1.56 -1.89,2.68 -0.91,0.97 -1.48,1.29 -2.18,2.39l-2.09 2.86c-5.96,7.76 -8.98,18.93 -8.98,28.75 0,3.65 1.5,14.84 2.54,17.27 0.57,1.34 1.23,1.98 1.65,3.3 2.11,6.53 1.94,4.74 5.07,10.17 0.68,1.17 1.12,2.12 1.79,3.16 0.88,1.38 1.65,1.45 2.44,2.51 1.28,1.73 3.06,4.14 4.78,5.51l5.55 4.35c5.09,3.56 3.13,1.07 6.65,3.64 2.92,2.13 7.1,2.69 10.36,4.5 1.1,0.61 2.25,0.96 3.51,1.44 7.75,2.99 16.55,3.11 20.66,4.49 1.46,0.49 2.51,0.71 4,0.96 2.8,0.46 6.16,1.04 9.09,1.19l19.82 0.38c6.47,0 13.25,-0.34 19.51,-1.83 1.22,-0.29 1.51,-0.31 2.87,-0.56 7.4,-1.37 14.55,-2.18 21.79,-3.74l12.07 -2.41c2.78,-0.73 6.6,-1.38 8.49,-2.18 2.27,-0.96 6.7,-0.44 9.59,-1.47 6.5,-2.32 19.18,-2.39 24.25,-4.71 1.83,-0.84 3.66,-0.92 5.57,-1.29 2.02,-0.39 4.33,-0.74 6.09,-1.15l11.21 -3.27c5.25,-1.37 6.24,-1.35 11.32,-3.16 2.09,-0.74 3.08,-1.24 5.43,-1.81 2.24,-0.55 3.29,-1.21 5.21,-2.02 1.43,-0.61 4.23,-0.83 5.94,-1.3 5.16,-1.41 9.99,-3.34 15.24,-4.58 2.18,-0.52 4.43,-1.75 6.77,-2.37 1,-0.27 1.98,-0.34 2.81,-0.62 1.46,-0.48 0.98,-0.71 2.68,-1.13 13.21,-3.24 12.18,-8.2 12.17,6.08 0,7.31 -0.33,10.51 9.11,7.2 4.4,-1.55 3.09,-6.16 3.09,-10.63 0,-2.21 -0.66,-8.46 -0.15,-9.67 0.61,-1.44 8.71,-3.82 10.82,-4.81 0.62,-0.29 1.09,-0.65 1.71,-0.95l24.51 -9.78c1.03,-0.56 2.05,-1.05 3.45,-1.51 1.47,-0.48 2.39,-1.06 3.81,-1.53 4.54,-1.5 5.67,-2.88 7.38,-3.29 3.95,-0.93 7.88,-2.4 11.26,-4.36 2.25,-1.3 4.84,-1.81 7.11,-3.18 1,-0.6 2.45,-1.39 3.54,-1.8 5.37,-2.01 3.51,-1.82 7.23,-3.44 3.3,-1.43 4.44,-2.54 6.71,-3.58l14.24 -7.1c1.23,-0.66 2.09,-1.37 3.36,-1.97 2.93,-1.4 4.14,-1.25 7.17,-3.12 3.39,-2.1 7.05,-3.42 10.33,-5.67 1.06,-0.73 1.87,-1.56 2.9,-2.05 1.78,-0.85 1.86,-0.33 3.5,-1.83 1.41,-1.3 1.36,-1.22 3.21,-2.12 3.53,-1.72 6.45,-3.81 9.91,-5.71 5.03,-2.77 5.22,-4.25 10.95,-1.93 4.17,1.69 8.71,1.96 12.9,3.11 2.05,0.56 1.49,0.85 3.55,1.4 5.2,1.39 10.78,2.95 15.38,5.58 2.27,1.3 5.35,1.7 7.62,3.04 0.83,0.49 0.59,0.52 1.72,0.94 1.11,0.42 0.84,0.1 1.96,0.71 1.25,0.68 1.6,1.24 3.08,1.87 4.87,2.09 8.95,5.25 13.76,7.58 1.32,0.64 1.81,1.22 3.44,1.9 2.81,1.15 5.1,2.99 8.44,2.99 2.24,0 1.28,-3.93 4.9,-2.66 2,0.71 3.22,2.28 6.15,2.28 3.54,0 11.11,0.73 14.07,-0.79 1.28,-0.66 2.99,-0.71 4.18,-1.54 1.09,-0.76 -0.25,-0.13 1.11,-0.8 0.85,-0.42 0.65,-0.14 1.42,-0.48 1.92,-0.86 -0.57,-0.02 3.74,-2.36l7.09 -4.73c1.58,-0.88 4.73,-3.94 6,-5.43l3.85 -4.15c0.93,-0.99 0.83,-1.15 1.53,-2.27 5.39,-8.6 1.92,-9.94 -2.23,-2.99l-3.4 4.6c-1.69,2.76 -1.82,2.43 -3.73,4.65 -1.26,1.46 -1.43,1.32 -2.97,2.36 -1.11,0.75 -1.75,1.72 -2.73,2.6 -0.65,0.58 -0.83,0.64 -1.55,1.12 -1.36,0.92 -1.96,1.69 -3.46,2.25 -0.19,0.07 -0.65,0.21 -0.83,0.31 -1.25,0.64 -1.28,1.13 -2.47,1.72 -1.23,0.61 -0.66,0.29 -1.63,1.03 -3.09,2.35 -9.98,2.34 -13.85,2.37 -0.97,0.01 -2.73,-0.61 -3.85,-1.17 -1.1,-0.55 -2.23,-1.45 -2.83,-2.51 -3.1,-5.56 -1.06,-8.86 -0.17,-14.43 0.56,-3.51 3.45,-8.35 5.24,-11.53 0.62,-1.1 0.69,-1.9 1.3,-2.89l6.94 -9.82c2.51,-3.05 4.23,-6.96 7.11,-9.65l0.39 -0.37c1.6,-1.68 1.76,-2.22 3.74,-3.89 1.1,-0.93 1.03,-1.31 1.91,-2.28 2.81,-3.07 10.94,-8.8 14.46,-10.69 1.91,-1.03 2.74,-2.41 4.94,-3.45 1.7,-0.8 1.36,-0.3 2.66,-1.54 3.49,-3.32 18.6,-4.96 25.32,-2.16 1.02,0.43 4.03,3.54 4.57,4.58 2.59,4.95 3.03,12.1 3.03,17.93 0,3.92 -1.41,10.83 -2.62,14.15 -0.44,1.2 -0.79,1.9 -1.12,3.08 -0.34,1.23 -0.49,2.08 -1.03,3.17l-4.3 8.66c-0.67,1.06 -1.12,1.38 -1.74,2.45 -1.1,1.9 -1.56,3.85 -3.01,5.37 -2.72,2.85 -3.4,5.67 -7.81,9.34l-3.82 4.56c-2.47,2.68 -5.44,4.89 -6.46,6.12 -2.2,2.66 -5.95,6.38 -8.81,8.33 -0.98,0.67 -1.67,0.82 -2.63,1.57l-1.21 1.08c-3.39,3.38 -0.83,0 -6.52,4.15l-18.72 11c-6.9,2.54 -12.96,6.93 -19.45,10.28l-7.94 4.64c-1.89,0.99 -4.14,1.81 -5.63,3.14 -1.16,1.04 -3.06,1.47 -3.79,2.3l-3.82 2.66c-1.35,1.21 -1.67,0.64 -2.8,1.39 -1.3,0.86 -1.86,2.01 -3.19,2.91 -1.63,1.1 -1.62,1.95 -3.59,2.88 -2.17,1.03 -2.17,2.55 -4.45,4.31 -0.92,0.71 -1.39,1.21 -2.17,2.02 -3.02,3.16 -7.33,8.69 -8.65,12.73 -0.31,0.94 -0.38,0.75 -0.01,1.48l0.71 0.78c0.05,0.05 0.17,0.14 0.22,0.18 0.04,0.04 0.15,0.11 0.22,0.17 3.34,-0.78 2.45,-2.23 3.82,-4.57l4.08 -4.3c4.3,-4.11 10.06,-7.4 15.23,-10.3l2.58 -1.61c1.1,-0.58 2.21,-0.55 3.3,-0.89 1.16,-0.37 1.88,-0.81 3.06,-1.13 6.46,-1.75 11.97,-2.62 18.47,-0.69 8.8,2.61 4.99,1.24 12.84,5.07l5.6 3.55c5.59,3.97 4.29,4.6 13.47,8.63 1.33,0.58 2.3,0.48 4.06,0.51 5.13,0.09 1.59,1.75 11.25,0.22 4.66,-0.74 6.21,-1.18 10.21,-3.51l5.52 -3.25c3.09,-1.99 6.99,-5.92 9,-8.91l3.57 -5.58c1.15,-2.22 2.65,-3.14 3.5,-5.65 1.08,-3.19 1.53,-3.52 1.53,-7.61 -1.21,0.32 -1.07,0.44 -1.55,1.49l-1.65 4.44c-0.52,0.96 -0.19,0.26 -0.49,1.03 -0.33,0.85 -0.08,0.56 -0.51,1.39 -0.33,0.63 -0.69,0.99 -1.23,1.82 -1.01,1.54 -0.38,0.59 -1.46,1.59 -1.38,1.26 -1.39,2.56 -2.77,3.71 -4.3,3.56 -3.1,2.27 -5.25,3.9 -0.7,0.53 -1.12,1.25 -1.79,1.64l-7.05 2.49c-1.32,0.17 -1.52,-0.25 -2.91,-0.25l-6.1 0.01c-2.07,-0.08 -3.71,-1.06 -5.44,-1.8l-4.52 -2.72c-1.05,-0.69 -1.2,-0.57 -2.33,-1.1 -1.01,-0.47 -1.44,-0.91 -2.28,-1.53 -2.19,-1.62 -4.79,-2.18 -7.19,-3.48 -3.15,-1.69 -11.5,-3.1 -15.19,-3.1l-11.43 0c-1.71,0 -1.76,0.86 -3.47,1.1 -4.09,0.57 -8.15,1.12 -12.11,2.36l-10.28 4.2c-2.25,1.15 -3.09,1.93 -5.38,0.71 2.26,-3.37 2.04,-1.82 3.79,-3.45l3.12 -2.59c1.19,-0.63 1.68,-1.69 3.06,-2.28 2.55,-1.09 5.46,-2.17 7.73,-3.71l15.14 -6.97c2,-0.87 2.98,-1.79 4.89,-2.73 4.88,-2.4 10.56,-3.95 15.09,-7.01 1.74,-1.17 7.66,-3.11 10.29,-4.57l7.47 -3.96c1.08,-0.48 1.64,-0.49 2.73,-1.08 1.98,-1.07 7.96,-4.26 9.3,-5.56 1.42,-1.37 0.82,-0.61 2.36,-1.45 0.75,-0.41 1.34,-1 2.25,-1.57 2.99,-1.89 5.28,-4.57 8.38,-6.49 2.2,-1.36 4.18,-3.16 6.08,-4.97 1.31,-1.25 3.15,-2.02 4.38,-3.24 0.85,-0.84 0.7,-1.19 1.71,-2.1 4.92,-4.46 6.45,-6.9 10.65,-11.83 1.22,-1.43 2.07,-2.6 2.83,-4.41 0.81,-1.94 1.6,-1.95 2.9,-4.73l2.65 -4.59c1.83,-3.97 3.06,-7.48 3.17,-12.07 0.13,-5.51 0.43,-9.92 -0.01,-15.6 -0.19,-2.35 -1.34,-3.77 -2.26,-5.36 -1.06,-1.83 -0.91,-3.12 -2.4,-4.84 -2.37,-2.73 -4.67,-5.19 -7.42,-7.44l-4.93 -2.69c-5.92,-2.57 -18.21,-2.62 -25.06,-1.19 -5.87,1.23 -5.75,1.7 -10.39,3.33 -1.23,0.43 -2.55,0.62 -3.6,0.97 -2,0.68 -12.4,6.61 -14.51,8.35 -1.77,1.47 -3.42,2.53 -5.2,3.95 -1.58,1.27 -3.74,2.55 -5.06,4.09l-7.1 6.62c-2.5,2.17 -4.2,4.74 -6.24,7.48l-6.91 11.38c-0.6,1.27 -0.65,1.95 -1.33,3.24l-2.61 6.54c-0.51,2.98 -0.73,10.07 -1.28,12.44 -3.23,-0.75 -7.1,-3.63 -10.9,-5.11 -2.45,-0.96 -4.55,-2.55 -6.7,-3.97 -2.26,-1.49 -8.44,-4.32 -10.88,-5.12 -1.18,-0.39 -2.67,-0.72 -4.12,-1.21 -1.77,-0.61 -1.79,-0.97 -3.82,-1.51l-11.96 -4.05c-1.62,-0.65 -3.68,-0.21 -5.29,-1.19 -3.78,-2.3 -5.4,-0.93 -6.91,-2.99 1.67,-2.49 5.78,-4.39 8.23,-6.25 1.08,-0.81 1.48,-1.38 2.66,-2.3 1.94,-1.52 6.11,-5.64 7.9,-6.57 0.59,-0.31 1.03,-0.43 1.52,-0.77 1.35,-0.93 2.27,-2.16 4,-3.24l5.84 -4.06c1.45,-1.18 4.54,-3.29 5.45,-4.46l9.5 -9.94c0.74,-1.32 0.96,-1.98 2.02,-2.93 1.87,-1.66 3.07,-3.33 4.8,-5.11 2.18,-2.25 6.84,-8.61 8.06,-11.37 2.01,-4.55 4.82,-8.46 5.91,-13.52 1.6,-7.41 2.88,-16.74 1.77,-24.96l-2.27 -9.16c-1.03,-2.64 -2.67,-5.33 -4.37,-7.45 -1.2,-1.49 -2.61,-2.35 -3.65,-3.97 -1.71,-2.67 -3.17,-4.13 -5.71,-6.1 -1.13,-0.87 -1.19,-0.98 -2.03,-1.75 -1.36,-1.25 -3.09,-2.26 -4.79,-3.23 -1.28,-0.73 -1.13,-1.05 -2.11,-1.7l-7.56 -3.87c-0.93,-0.57 -1.57,-1.28 -2.23,-1.58 -1.2,-0.53 -1.48,-0.2 -2.83,-0.98 -4.86,-2.8 -9.17,-3.36 -13.85,-5.59 -1.07,-0.51 -1.87,-0.75 -3.06,-1.13 -1.11,-0.36 -1.97,-0.55 -2.9,-0.91 -2.75,-1.03 -6.42,-1.49 -9.3,-2.52 -2.22,-0.8 -3.14,-1.78 -5.59,-2.03 -6.44,-0.67 -12.99,-3.31 -19.42,-3.82 -6.75,-0.54 -13.6,-2.1 -20.21,-3.04 -6.92,-0.98 -14.96,-0.27 -21.82,-1.43 -2.86,-0.48 -3.39,-0.89 -6.75,-0.87 -2.59,0.01 -4.55,-0.39 -7.61,-0.39 -2.29,0 -5.66,0.14 -7.18,0.12 -2.42,-0.03 -5.14,-0.12 -7.68,-0.12 -2.73,0 -5.17,-0.02 -7.34,0.28 -3.11,0.43 -4.9,-0.28 -7.52,-0.28 0.08,-0.05 0.2,-0.21 0.24,-0.14l21.9 -10.49c1.95,-0.71 2.92,-1.3 4.47,-2.39 1.53,-1.07 2.58,-1.03 4.14,-2.34 2.17,-1.84 2.23,-1.1 4.58,-2.28 1.79,-0.9 1.67,-1.72 3.77,-2.7 1.85,-0.87 2.92,-1.04 4.56,-2.3 1.77,-1.36 1.89,-1.46 4.09,-2.39 1.95,-0.82 2.21,-1.72 4.05,-2.81l12 -7.81c1.93,-1.33 2.23,-1.19 3.93,-2.93l6.99 -5.96c0.06,-0.05 0.14,-0.13 0.2,-0.19l0.6 -0.55c0.33,-0.3 0.45,-0.4 0.79,-0.73l5.51 -4.78c2.71,-1.99 4.35,-4.32 6.68,-6.65 0.97,-0.97 2.43,-2.22 3.17,-3.31l8.24 -11.95c1.82,-2.88 2.94,-5.81 4.5,-8.84 1.07,-2.09 0.97,-2.2 1.7,-4.77 0.53,-1.84 1.46,-2.95 2.11,-4.75 2.92,-7.94 2.66,-12.45 2.66,-20.2 0,-4.07 -1.67,-7.82 -2.67,-11.81 -0.44,-1.75 -0.37,-2.31 -1.12,-3.83 -1.23,-2.46 -5.33,-10.14 -7.13,-12.3 -1.58,-1.9 -2.44,-3.76 -4.14,-5.39l-9.03 -10.4c-1.65,-1.68 -6.11,-4.81 -8.41,-6.07 -1.25,-0.68 -1.78,-1.23 -3.06,-1.9l-2.92 -2.03c-0.95,-0.76 -1.97,-1.1 -3.17,-1.78 -2.86,-1.63 -3,-2.64 -7.09,-4.72 -0.62,-0.32 -0.85,-0.53 -1.68,-0.98 -2.1,-1.14 -2.78,-1.9 -5.28,-3.1 -0.81,-0.39 0.01,-0.04 -0.79,-0.35l-23.84 -10.83 -11.06 -3.42c-1.25,-0.41 -2.52,-1.09 -3.58,-1.38 -8.39,-2.28 -13.94,-4.33 -22.73,-6.23 -1.44,-0.31 -2.43,-0.48 -4.13,-0.82l-5.64 -1.6c-0.71,-0.16 -1.31,-0.38 -1.79,-0.49l-12.32 -2.54c-5.79,-1.05 -10.22,-2.7 -16.2,-3.23 -3.07,-0.28 -5.48,-1.04 -8.35,-1.18 -2.81,-0.13 -7.08,-0.15 -9.24,-0.67 -4.52,-1.08 -8.77,-1.09 -13.26,-1.22 -7.35,-0.22 -14.35,-1.54 -23.23,-1.54 -5.68,0 -19.52,-0.54 -24.55,0.22l-18.89 0.92c-3.26,0.08 -5.62,0.77 -9.15,0.75l-17.8 2.02c-1.41,0.2 -2.4,0.55 -4.29,0.66 -7.53,0.43 -8.55,1.73 -12.59,2.27 -3.08,0.42 -5.4,0.87 -8.54,1.37 -5.95,0.94 -10.46,2.44 -16.19,3.63 -2.53,0.53 -5.72,1.17 -8.12,1.79l-8.08 1.83c-2.97,0.76 -4.7,1.68 -7.46,2.45 -2.32,0.64 -5.73,1.11 -7.95,1.96 -1.87,0.72 -4.04,1.03 -5.72,1.9 -0.77,0.4 -1.06,0.47 -1.95,0.71l-15.25 4.56c-1.5,0.45 -2.25,0.88 -3.67,1.28l-7.53 2.37c-1.49,0.51 -2.02,0.87 -3.49,1.46 -1.25,0.5 -2.47,0.74 -3.65,1.3l-10.14 4.72c-1.46,0.38 -2.28,0.5 -3.77,1.18 -1.29,0.59 -2.38,0.87 -3.55,1.4l-17.15 8c-1.32,0.59 -2.41,0.67 -3.77,1.19l-13.81 7.15c-0.37,0.29 -0.28,0.23 -0.7,0.44 -2.17,1.1 -2.35,0.82 -5.12,2.5 -4.54,2.74 -10.12,4.49 -14.23,7.87 -1.19,0.98 -0.42,0.29 -1.72,0.94 -0.9,0.45 -2.56,1.67 -2.56,2.77z"/>
   <path class="fil1" d="M266.09 568.08c-0.85,-1.27 -1.28,-1.11 -0.64,-2.15 0.59,-0.96 0.93,-1.04 2.01,-1.43 2.69,-0.99 3.13,-1.93 4.96,-3.8 2.38,-2.43 2.15,-1.84 4.67,-3.72 0.75,-0.56 1.3,-0.72 2.18,-1.25 1.69,-1 2.72,-2.02 4.35,-2.89 3.27,-1.74 8.08,-6.84 12.04,-8.54 1.5,-0.65 1.26,-0.55 2.36,-1.45l4.11 -2.75c0.94,-0.65 0.88,-0.86 1.91,-1.52 1.08,-0.69 1.29,-0.5 2.29,-1.14 2.1,-1.35 3.93,-2.98 6.14,-4.15 1.72,-0.91 2.43,-2.19 4.03,-3.21 1.05,-0.67 1.36,-0.49 2.37,-1.05 3.21,-1.76 4.56,-3.7 10.59,-6.56 0.92,-0.43 1.48,-0.92 2.32,-1.49 2.07,-1.38 4.57,-2.33 6.84,-3.45 1.76,-0.87 2.47,-1.76 4.18,-2.68 1.62,-0.88 2.96,-1.39 4.58,-2.28l12.89 -8.07c1.26,-0.8 0.92,-0.49 2.42,-1.01 0.95,-0.33 1.51,-0.62 2.42,-1.01 1.34,-0.57 3.36,-1.78 4.56,-2.68 2.29,-1.72 10.41,-5.47 13.62,-6.95 1.35,-0.62 1.05,-0.79 2.13,-1.3l4.89 -1.97c2.5,-0.73 4.66,-2.09 7.08,-3.21l4.6 -2.26c5.51,-2.45 5.15,-2.95 6.87,-3.8 0.79,-0.39 1.66,-0.55 2.52,-0.9 2.11,-0.87 2.51,-1.86 4.54,-2.32 2.37,-0.54 3.09,-0.81 5.05,-1.81 1.04,-0.53 1.47,-0.89 2.53,-1.28 1.03,-0.38 1.48,-0.46 2.49,-0.94 2.83,-1.33 15.01,-6.68 17.27,-7.11 1.88,-0.36 9.72,-3.79 12.42,-4.72l10.2 -3.52c3.9,-1.13 7.9,-3.28 9.84,-3.88 2.16,-0.67 3.35,-0.53 5.32,-1.54 0.6,-0.31 0.32,-0.27 1.27,-0.63l14.76 -4.3c2.11,-0.58 3.43,-0.87 5.25,-1.61 1.54,-0.62 3.69,-1.23 5.49,-1.75l22.66 -5.16c2.02,-0.21 3.31,-1.12 5.44,-1.42 4.28,-0.6 7.37,-1.74 11.75,-1.97 1.99,-0.1 3.98,-0.56 5.93,-0.92 2.15,-0.41 4.13,-0.18 6.24,-0.62 6.49,-1.34 14.79,-1.11 21.75,-1.11 8.97,0 18.82,2.88 27.11,6.04l3.92 1.79c4.21,2.36 4.97,2.41 9.06,5.8 0.97,0.8 2.43,1.71 3.22,2.5l5.08 6.74c4.93,9.29 8.44,12.11 5.34,24.77 -0.69,2.81 -1.73,5.91 -3.27,8.17 -0.61,0.9 -0.91,1.68 -1.26,2.56 -1.14,2.9 -1.55,2.45 -3.11,4.51 -0.51,0.67 -1.03,1.49 -1.63,2.18 -4.04,4.7 -4.97,7.52 -10.46,12.4 -0.77,0.69 -1.24,0.86 -1.99,1.44 -0.56,0.44 -0.55,0.51 -1.01,0.89l-1.88 1.55c-0.05,0.06 -0.12,0.15 -0.17,0.21 -1.06,1.25 -1.99,1.62 -3.44,2.28 -1.95,0.89 -0.87,0.68 -2.02,1.8 -0.93,0.9 -7.92,4.07 -9.57,5.29 -0.75,0.56 -1.47,1.08 -2.31,1.5l-17.6 8.7c-1.79,0.83 -3.4,1.84 -5.08,2.54 -1.03,0.43 -1.78,0.47 -2.97,0.84l-8.24 3.2c-1.93,0.73 -3.95,1.07 -5.89,1.73 -0.89,0.3 -1.75,0.6 -2.89,0.93l-8.43 3.01c-4.05,0.74 -7.38,2.51 -11.45,3.41l-5.97 1.65c-8.1,1.43 -7.24,1.99 -12.09,3.15 -1.12,0.27 -1.88,0.53 -2.95,0.86 -3.21,1.01 -9.94,1.84 -12.06,2.81 -1.18,0.54 -1.45,0.64 -2.82,0.99 -1.82,0.46 -4.26,1.01 -6.21,1.41 -1.88,0.39 -4.37,0.67 -6.08,1.16l-6.04 1.59c-4.95,1.46 -13.98,2.96 -19.17,3.69l-6.52 1.11c-2.44,0.41 -4.26,0.55 -6.65,0.97 -2.05,0.36 -4.08,0.85 -6.57,1.05 -2.31,0.19 -4.39,0.72 -6.21,1.03 -4.55,0.77 -9.38,0.49 -13.76,1.48 -2.97,0.67 -3.91,0.29 -7.07,0.55 -1.9,0.16 -4.53,0.49 -6.48,0.76l-14.11 1.13c-2.47,0.13 -5.16,-0.13 -7.64,0 -1.61,0.09 -1.88,0.15 -3.07,0.17 -0.88,0.01 -1.57,0.2 -3,0.22 -2.75,0.03 -4.81,0.45 -6.99,0.66 -1.82,0.18 -1.6,-0.29 -3.31,-0.3 -2.48,-0.01 -5.08,0.67 -11.04,0.35 -3.4,-0.18 -6.87,0.29 -10.29,0.02 -1.24,-0.1 -2.2,-0.52 -3.15,-0.66l-22.02 -0.47c-2.9,0.02 -4.23,-0.39 -7.25,-0.37 -2.73,0.01 -4.07,-0.55 -6.81,-0.81 -2.01,-0.19 -4.95,-0.4 -6.93,-0.69 -2.59,-0.38 -2.97,-1.18 -6.05,-1.19 -4.8,-0.02 -5.98,-0.5 -10.08,-1.35 -1.17,-0.24 -2.22,-0.15 -3.44,-0.37 -4.72,-0.84 -7.21,-2.08 -12.78,-2.08zm94.12 -93.74c0,1.8 1.14,3.58 1.14,5.72 0,2 -2.85,1.74 -4.27,2.59 -2.01,1.22 -1.45,2.82 -1.45,5.79 -1.31,0.87 -3.17,1.56 -4.18,2.68 -0.83,0.92 -1,0.82 -2.34,1.47 -0.55,0.27 -0.08,0.03 -0.72,0.42l-20.13 10.74c-1.04,0.52 -1.83,1.31 -2.85,2.11 -1.81,1.42 -4.04,2.34 -5.82,3.71l-8.7 5.4c-1.66,1.11 -1.54,0.94 -3.33,1.62 -0.76,0.3 -0.95,0.36 -1.44,0.84l-0.51 0.63c-0.39,0.48 -0.15,0.32 -0.51,0.64 -0.75,0.67 -2.17,0.77 -3.43,1.52 -4.03,2.4 -7.98,4.44 -11.8,7.25l-5.83 3.7c-0.93,0.71 -1.6,1.29 -2.63,1.94l-15.6 10.7c-3.23,2.62 -6.19,5.18 -9.76,7.38 -2.34,1.44 -3.71,3.61 -5.08,4.45 -2.35,1.44 -1.93,1.34 -3.68,3.18 -2.7,2.84 -4.17,-0.64 -7.6,-2.07 -1.17,-0.49 -2.05,-0.91 -3,-1.58l-13.54 -7.8c-1,-0.66 -0.46,-0.51 -1.73,-0.94 -2.4,-0.8 -1.27,-0.1 -2.7,-1.88 -1.16,-1.44 -1.36,-1.19 -2.81,-2.14 -1.93,-1.26 -3.63,-2.9 -5.58,-3.94 -2.21,-1.19 -5.87,-6.43 -10.13,-8.92l-5.58 -3.95c-1.15,-0.69 -1.65,-1.15 -2.54,-2.03l-11.01 -8.81c-1.62,-1.53 -6.49,-5.76 -8.33,-5.76 -1.14,0 -1.94,0.91 -2.52,1.67l-5.05 6.38c-4.47,4.92 -1.59,5.35 5.28,10.23 0.88,0.63 1.49,1.02 2.45,1.74 2.6,1.97 5.27,3.84 7.55,6.17 2.21,2.26 5.17,3.92 7.75,5.97 1.19,0.94 1.16,1.26 2.56,2.01 2.78,1.49 5.78,3.22 7.82,5.51 1.31,1.48 1.57,0.58 3.01,1.57 2.64,1.81 1.49,1.92 5.45,3.7 0.7,0.31 0.81,0.36 1.39,0.89 2.86,2.66 6.32,3.67 9.17,6.45 1.77,1.73 3.71,1.91 5.82,3.33l4.5 2.36c0.67,0.32 0.67,0.36 1.48,0.81 2.63,1.46 3.79,1.21 5.45,3.69l-13.04 9.44c-3.71,2.45 -10.83,10.04 -14.29,13.52l-7.37 6.73c-0.06,0.05 -0.14,0.12 -0.2,0.18l-6.96 6.75c-1.14,1.56 -1.21,1.82 -2.72,2.99 -2.63,2.05 -4.62,7 -7.14,9.63l-3.59 4.79c-0.4,0.74 -0.59,1.08 -1.18,1.86 -0.94,1.26 -1.11,2.17 -2.08,3.26 -5.51,6.18 -3.37,5.16 -6.65,10.5l-5.21 11.55c-1.09,2.67 -1.67,5.7 -2.49,8.56 -0.89,3.11 -1.04,6.47 -1.53,9.9 -0.28,1.91 -0.06,3.58 -0.27,5.45 -0.33,2.84 -0.14,7.01 0.37,10.03 0.75,4.44 1.87,9.08 3.74,13.03 0.83,1.76 1.25,2.07 2.16,3.55 2.16,3.5 2.94,3.64 5.05,6.38 0.99,1.29 1.44,1.69 2.54,2.8l6.1 5.33c1.73,1.68 3.98,4 6,5.05 2.16,1.13 2.94,2.46 5,3.38 3.82,1.71 4.23,2.3 9.65,4.45 1.66,0.66 2.41,1.18 3.98,1.74l8.6 2.83c1.59,0.58 3.08,0.44 4.47,0.87 1.55,0.48 2.29,1.09 4.28,1.43l19.6 2.88c1.53,0.27 3.47,0.21 5.19,0.53 1.76,0.33 3.04,0.52 4.95,0.79 2.21,0.31 2.74,-0.11 4.46,0.07 2.66,0.26 2.61,0.53 4.99,0.2 3.65,-0.52 7.2,0.27 10.95,0.27l19.99 -0.59c4.38,-0.74 16.2,-0.94 18.97,-1.61 5.93,-1.42 13.5,-0.92 19.73,-1.23 1.97,-0.1 3.85,-0.85 5.77,-1.09 3.47,-0.44 7.75,-0.03 11.15,-1.04l7.85 -0.91c2.96,-0.02 3.79,-0.72 6.07,-1.17 3.27,-0.63 8.05,-0.37 12.81,-1.29 4.05,-0.78 8.27,-0.63 12.26,-1.46l11.96 -2.14c2.4,-0.24 4,-0.25 6.37,-0.49l18.29 -3.04c2.84,-0.47 5.53,-1.5 8.38,-1.91 1.09,-0.15 2.05,-0.45 3.13,-0.68 2.22,-0.48 3.94,-0.2 6.31,-0.55 2.33,-0.35 4.09,-0.89 5.96,-1.28 2.44,-0.51 3.23,-1.21 5.27,-1.59l11.8 -2.3c1.09,-0.07 2.24,0.11 3.28,-0.15 1.49,-0.36 0.4,-0.64 3.17,-0.64 -0.79,0.68 -0.57,0.65 -1.9,0.76 -0.12,1.48 -0.14,1.33 -1.18,1.87 -3.37,1.77 -3.19,1 -6.04,3.87 -2,2.01 -5.47,3.37 -7.32,5.64 -1.63,2 -4.13,3.26 -6.06,4.99 -0.06,0.05 -0.14,0.13 -0.2,0.18l-6.36 5.07c-3.41,3.37 -4.77,3.63 -8.33,8.06l-2.17 2.4c-2.61,2.31 -4.5,5.76 -7.01,8.24l-17.5 21.75c-1.01,1.79 -1.17,2.74 -2.52,4.34 -2.02,2.4 -2.93,5.75 -4.62,8.34l-7.28 12.53c-0.74,2.07 -1.49,5.06 -2.66,6.87 -1.41,2.18 -1.92,4.95 -2.95,7.34 -2.56,5.98 -4.31,15.54 -4.31,21.99l0 12.19c0,3.39 1.03,5.69 1.62,8.66 1.29,6.45 3.52,12.57 7.19,17.96l0.33 0.43c0.29,0.4 -0.06,-0.19 0.48,0.66 2.23,3.49 4.38,6.88 7.32,9.82 0.82,0.82 0.54,0.47 1.29,1.38 1.34,1.61 9.12,8 11.5,9.46l23.23 12.97c6.62,2.66 3.64,1.94 12.04,3.59 1.82,0.36 2.56,0.93 4.05,1.28 7.88,1.89 20.9,3.13 28.5,3.13l12.57 0c4.04,0 7.03,-0.4 10.68,-0.37 2.79,0.02 2.72,-0.49 4.6,-0.73 3.46,-0.44 6.86,0.08 10.48,-0.57 4.97,-0.91 9.99,-1.24 14.86,-2.29 6.16,-1.33 12.82,-1.3 18.97,-3.13 3.83,-1.14 9.25,-3.1 13.21,-3.55 6.96,-0.79 8.27,-2.67 13.27,-3.5 5.5,-0.91 11.91,-3.59 17.36,-4.74 2.04,-0.43 2.91,-0.8 4.48,-1.24 1.72,-0.48 3.51,-0.36 4.99,-0.73 2.99,-0.75 5.55,-1.9 8.61,-2.44l4.19 -1.15c1.45,-0.52 3.08,-0.6 4.8,-0.91 2.07,-0.38 2.31,-0.83 4.17,-1.17 3.45,-0.62 6.02,-0.83 9.61,-1.82 5.73,-1.59 2.34,-6.41 1.76,-10.61 -0.29,-2.17 0.57,-4.37 -0.91,-5.95 -1.97,-2.1 -2.82,-0.69 -5.43,-0.21 -1.79,0.33 -2.95,0.28 -4.52,0.81 -5.76,1.92 -10.41,2.78 -15.94,4.63l-23.61 7.25c-1.1,0.38 -3.21,0.49 -4.27,0.69 -1.82,0.35 -2.47,0.75 -4.24,1.09 -5.2,1.02 -7.66,2.2 -12.52,3.11 -1.95,0.36 -2.75,0.72 -4.17,1.17 -2.78,0.89 -5.83,0.35 -8.8,1.49 -1.81,0.7 -4.63,0.68 -6.46,1.16l-6.73 1.27c-1.32,0.15 -3.56,0.38 -4.69,0.65 -4.11,0.97 -9.35,0.7 -13.56,1.69 -4.52,1.06 -20.61,2.21 -25.23,2.21 -0.93,0 -1.47,-0.21 -1.95,-0.23 -1.02,-0.02 -0.78,0.23 -2.24,0.23 -16.32,0 -22.23,0.27 -38.13,-3.02 -1.37,-0.28 -3.63,-0.21 -5,-0.72 -9.07,-3.39 -7.74,-0.67 -20.38,-7.05 -7.31,-3.69 -4.97,-3.57 -9.87,-6.89 -4.16,-2.82 -5.48,-4.59 -8.45,-7.94 -3.91,-4.41 -6.2,-8.18 -8.32,-13.78 -0.61,-1.6 -0.58,-3.01 -1.19,-4.52 -1.42,-3.53 -1.98,-15.77 -1.57,-19.66l0.87 -7.14c0.21,-0.98 0.5,-1.34 0.75,-2.3 0.8,-3.12 0.52,-4.27 1.91,-9.14 0.51,-1.78 1.04,-2.16 1.51,-3.83 1.35,-4.88 5.99,-13.48 6.56,-15.55l4.69 -7.51c1.49,-1.8 2.43,-4.25 3.82,-6.09 1.06,-1.41 1.15,-2.11 2.06,-3.65l4.58 -6.47c0.62,-0.88 0.54,-0.9 1,-1.67l6.54 -8.32c0.06,-0.06 0.14,-0.13 0.19,-0.19l10.31 -10.26c0.29,-0.26 0.42,-0.43 0.57,-0.58l28.85 -25.26c0.63,-0.43 1.07,-0.56 1.69,-0.98l1.64 -1.41c1.19,-0.88 2.36,-1.09 3.36,-1.97l12.96 -9.14c3.04,-1.37 8.59,-4.75 11.05,-5.72l7.59 -3.46c5.49,-3.32 10.62,-4.19 16.75,-5.35 2.01,-0.38 2.62,-0.93 4.14,-1.2 2.09,-0.36 2.85,-0.38 4.77,-0.94l8.82 -2.24c6.27,-1.73 3.25,-0.88 9.13,-1.92l5.89 -2.11c0.77,-0.38 -0.06,-0.09 1.06,-0.47 0.2,-0.07 1.07,-0.28 1.21,-0.31 3.66,-0.88 6.23,-2.47 8.25,-2.8 7.93,-1.31 8.92,-2.99 12.55,-3.83 3.42,-0.79 20.54,-5.87 23.36,-7.12l3.86 -1.47c0.93,-0.52 1.12,-0.51 2.15,-0.89 1.47,-0.54 2.14,-1.17 3.48,-1.85 2.14,-1.09 1.65,-0.88 3.34,-2.38 2.22,-1.97 3.79,-2.13 5.23,-5.82 1,-2.57 1.66,-6.38 0.82,-9.18 -0.52,-1.74 -0.8,-2.32 -1.85,-3.49 -4.53,-5.02 -5.23,-4.26 -11.56,-5.21 -1.93,-0.29 -8.5,0.1 -10.17,0.44l-26.07 7.08c-5.57,2.22 -5.75,1.51 -11.66,4.72l-7.64 3.41c-1.46,0.74 -2.26,1.36 -3.67,2.04l-10.99 5.4c-1.21,0.57 -2.34,1.48 -3.62,2.1 -2.36,1.14 -1.69,0.33 -5.54,2.47 -0.67,0.37 -1.33,0.62 -2.13,0.92l-11.15 5.23c-1.46,0.63 -2.64,0.93 -4.15,1.56 -4.31,1.8 -6.83,4.09 -11.44,4.95 -2.98,0.55 -5.26,2.38 -8.25,2.8 -2.39,0.33 -3.04,0.27 -4.94,0.77 -1.64,0.43 -2.45,0.65 -4.27,1.07 -2.04,0.46 -2.28,0.99 -4.18,1.54 -7.53,2.17 -14.81,3.13 -22.55,4.89l-8.77 2.28c-1.78,0.37 -3.18,0.35 -4.96,0.75 -1.76,0.39 -2.76,1.08 -4.05,1.29 -1.72,0.28 -3.58,0.24 -5.24,0.47 -2.07,0.29 -2.26,0.77 -4.15,1.19l-19.28 2.82c-1.85,0.29 -3.25,0.58 -4.82,0.9 -1.65,0.34 -2.6,0.65 -4.37,0.97l-29.02 4.13c-1.24,0.21 -3.37,0.76 -4.77,0.94 -1.81,0.23 -3.51,0.11 -4.98,0.36l-15.11 1.66c-3.35,0.25 -6.33,1.17 -9.92,1.13 -3.17,-0.04 -7.57,0.39 -9.94,1.11l-20.16 1.94c-5.91,-0.03 -16.64,-0.58 -21.89,0.22 -2.33,0.35 -8.37,0.35 -10.87,0.14 -8.37,-0.69 -17.86,0.06 -26.17,-1.27 -1.67,-0.27 -3.04,-0.59 -4.87,-0.84 -3.54,-0.49 -6.8,-0.67 -9.87,-1.18l-9.53 -1.53c-3.42,-0.48 -5.57,-1.75 -9.05,-2 -3.45,-0.25 -5.3,-1.65 -8.6,-2.45 -1.72,-0.42 -10.37,-3.55 -11.86,-4.53 -1.67,-1.11 -3.97,-1.6 -5.53,-2.85 -1.24,-0.99 -0.4,-0.31 -1.66,-1.01 -1.22,-0.68 -1.71,-1.87 -3.09,-2.63 -2.67,-1.48 -1.12,-0.59 -2.82,-2.51 -0.97,-1.1 -2.03,-1.59 -2.92,-2.8 -8.04,-10.85 -8.54,-26.69 -3.42,-39.05 1.25,-3.03 3.53,-9.26 5.34,-11.43 1.26,-1.52 1.43,-1.14 2.09,-3.25 0.73,-2.3 1.01,-1.89 1.99,-3.72l4.46 -6.59c2.12,-2.46 0.89,-1.91 3.96,-4.81 0.06,-0.05 0.14,-0.13 0.19,-0.19 0.06,-0.06 0.13,-0.14 0.19,-0.2 0.4,-0.44 0.28,-0.34 0.65,-0.87 0.87,-1.25 1.65,-1.46 2.65,-2.69 0.62,-0.76 0.48,-0.92 1.02,-1.65 0.88,-1.19 0.69,-0.53 1.61,-1.44 1.85,-1.81 3.04,-4.44 4.79,-6.26 1.46,-1.52 1.55,-0.76 2.59,-2.74l2.32 -2.63c0.06,-0.05 0.14,-0.13 0.19,-0.19l5.69 -5.74c0.98,-1.05 1.32,-1.97 2.35,-2.99l11.7 -10.4c1.65,-1.26 2.22,-2.52 5.78,-5.27 3.19,-2.48 5.61,-5.53 8.8,-7.96 2.94,-2.24 4.49,-1.53 7.89,-0.42l7.99 3.06c1.53,0.5 2.63,0.67 4.19,1.14l10.63 3.09c4.02,1.45 7.84,1.15 12.06,2.04 1.52,0.32 3.05,0.25 4.78,0.55 4.12,0.72 4.68,1.72 9.35,1.71 2.45,-0.01 3.13,0.37 5.33,0.38 3.55,0.03 6.87,0.76 10.28,0.77 8.68,0.01 17.34,0.99 25.93,-0.02 4.44,-0.53 6.98,0.44 15.33,-0.66l12.1 -0.47c4.27,0.04 7.61,-0.4 11.76,-0.82 2.09,-0.21 2.95,-0.74 5.76,-0.71l23.85 -1.68c2.36,-0.35 3.55,-0.15 5.75,-0.73 1.49,-0.39 4.05,-0.84 5.49,-0.99 2.45,-0.25 3.36,-0.8 5.02,-1.07 3.76,-0.61 7.94,-0.3 11.72,-1.24l16.75 -2.31c3.86,-0.54 7.11,-1.13 11.24,-1.71 2.34,-0.33 3.09,-0.56 5.07,-1.02 1.39,-0.33 4.09,-0.45 5.79,-0.69 1.95,-0.27 3.71,-0.85 5.41,-1.07 1.89,-0.24 4.17,-0.34 5.66,-0.82 1.6,-0.52 0.44,-0.43 2.3,-0.75l7.82 -1.71c2.22,-0.31 3.76,-0.33 5.51,-0.97 2,-0.74 3.07,-0.7 5.31,-1.17l20.58 -4.95c0.8,-0.38 0.89,-0.68 1.96,-1.09 3.85,-1.47 8.12,-2.12 11.88,-3.74l4.84 -1.63c3,-1.25 3.17,-1.65 6.53,-2.62l10.44 -4.05c2.78,-1.47 7.95,-2.44 10.9,-3.58 2.6,-1.01 4.44,-1.3 6.88,-2.65l6.83 -2.7c2.99,-1.06 6.53,-2.15 9.27,-3.69l19.74 -12.27c2.43,-2.16 4.82,-3.15 7.25,-5.32l6.7 -6.25c0.99,-1.1 2.28,-1.65 3.09,-3l2.46 -4.02c1.31,-1.9 1.39,-1.66 2.5,-3.97 2.15,-4.43 4.23,-8.52 5.68,-13.38 1.88,-6.3 1.69,-20.63 0.2,-27.55 -0.94,-4.35 -2.44,-8.88 -3.91,-12.86 -2.3,-6.2 -10.69,-18.44 -16.3,-21.42 -1.16,-0.62 -1.54,-0.95 -2.52,-1.67l-7.91 -4.67c-1.31,-0.68 -1.35,-1.02 -2.52,-1.67l-12.18 -4.59c-5.7,-1.91 -15.32,-2.53 -21.76,-3.39 -7.18,-0.96 -3.04,-0.27 -7.35,-0.27 -2.05,0 -2.14,-0.35 -3.82,-0.39 -1.8,-0.04 -2.1,0.39 -4.17,0.41 -3.05,0.03 -5.73,0.11 -8.62,0.53 -2.09,0.3 -11.35,1.39 -13.52,0.62 -1.41,-0.5 -1.17,-1.16 -2.65,-1.16 -2.22,0 -7.92,4.66 -9.05,-0.48 -0.85,-3.91 -0.96,-2.95 -4.67,-2.95 -1.3,0 -9.33,2.87 -10.99,3.49 -1.82,0.68 -3.58,1 -5.41,1.83 -0.5,0.23 -1.82,0.8 -2.46,0.97 -6.39,1.67 -2.37,1.13 -8.12,2.93l-5.34 1.9c-7.68,2.06 -18.04,7.37 -26.7,9.88 -4.55,1.32 -9.15,2.82 -13.37,4.92 -2.32,1.16 -23.49,7.42 -27.32,9.26 -2.39,1.15 -5.71,1.86 -8.19,2.86 -1.84,0.74 -3.08,1.45 -5.05,2.19 -1.96,0.74 -3.51,1.03 -5.45,1.79 -3.72,1.46 -6.93,2.9 -10.79,4.08 -1.47,0.45 -1.3,0.63 -2.35,1.08 -1.01,0.44 -1.86,0.5 -2.93,0.88l-21.61 7.73c-1.99,0.56 -3.57,1.17 -5.45,1.79 -1.84,0.61 -3.39,1.17 -5.25,1.99 -1.98,0.87 -4.33,0.73 -4.33,3.29z"/>
   <path class="fil1" d="M321.35 437.76c0.82,-0.55 1.12,-0.87 2.29,-1.14 0.18,0.16 1.25,1.22 1.36,1.3 1.01,0.78 0.73,0.36 1.79,0.88 1.1,0.54 0.68,0.46 1.59,1.08 2.13,1.43 8.58,3.6 10.5,3.6 9.3,0 7.43,-1.52 11.43,-1.52 -0.37,1.37 -0.76,0.92 -2.57,2.77 -5.41,5.53 -10.33,2.05 -12.07,1.58 -5.02,-1.34 -11.48,-4.31 -14.32,-8.54zm46.11 -9.91c0,-4.02 -0.39,-5.23 2.21,-8.46 1.65,-2.05 4.66,-2.59 6.94,-2.59 1.78,0 4.07,1.71 5.14,2.87l1.61 2.2c1.45,2.87 1.48,8.54 -1.91,10.45 -5.09,2.86 -6.62,3.74 -11.17,0.73 -1.57,-1.04 -2.82,-3.95 -2.82,-5.19zm50.68 -41.54c0,-1.69 0.58,-1.51 2.29,-1.9 0.37,0.56 0.67,0.74 0.93,1.36l1.97 5.65c1.44,4.83 0.99,16.71 -0.07,21.36 -0.53,2.3 -0.62,3.06 -2.97,3.51 -2.66,0.5 -3.55,0.83 -5.58,-0.25 1.5,-6.43 2.18,2.92 4.26,-13.65 0.31,-2.43 0.72,-6.04 0.43,-8.18l-1.26 -7.9zm74.31 -11.05c1.25,0 2.14,0.7 3.05,1.14 1.65,0.82 3.39,1.25 4.54,4.22 1.2,3.11 0.98,5.71 -1.19,8.65 -2.73,3.69 -11.18,4.88 -14.02,0.47 -0.97,-1.51 -1.28,-3.02 -2.06,-4.84 -0.66,-1.52 -0.71,-0.74 -0.16,-2.27 1.56,-4.29 4.94,-7.38 9.85,-7.38zm-61.73 7.62c0,-4.51 2.49,-3.32 4.07,0.52 0.75,1.82 0.9,1.13 1.72,2.45 3.44,5.52 3.63,4.16 6.07,7.27 2.63,3.34 2.24,1.74 4.61,4.16 1.3,1.32 6.66,3.61 7.91,3.9l0 1.9c-1.49,0.4 -3.29,2.78 -6.1,3.43 -4.05,-2.71 -4.1,-4.36 -7.91,-7.71 -1.28,-1.13 -1.91,-1.07 -2.69,-2.64 -2.19,-4.41 -2.23,-1.06 -4.31,-5.98l-2.71 -5.3c-0.44,-0.85 -0.67,-0.77 -0.67,-2zm95.65 -1.52l-8 -0.38c1.44,-1.25 1.85,-0.47 4.21,-1.13 1.28,-0.35 2.47,-0.89 3.95,-1.38 3.44,-1.15 5.89,-5.38 7.73,-8.65 0.53,-0.94 0.59,-0.77 0.98,-1.69 0.32,-0.75 0.36,-1.39 0.62,-2.05 0.9,-2.36 0.25,0.74 1.35,-3.99 0.29,-1.23 1.36,-3.03 2.13,-3.59 3.1,2.27 0.08,8.78 -1.42,12.29 -0.4,0.94 -0.44,0.74 -0.98,1.69 -0.53,0.93 -1.15,2.05 -1.59,2.98 -1.35,2.83 -1.77,5.91 -8.96,5.91zm9.91 -75.07c0,3.1 0.3,7.15 1.41,10.02 1.48,3.83 1.01,1.76 2.24,6.53 0.41,1.6 0.57,1.68 1.07,3.12 1.58,4.49 3.22,11.96 1.76,16.92 -0.46,1.56 -0.61,1.21 -1.91,1.9 -3.01,-4.5 -0.63,-5.75 -2.38,-12.1 -0.67,-2.44 -2.49,-8.64 -3.77,-10.71 -0.81,-1.3 -0.88,-0.79 -1.67,-1.76 -2.09,-2.6 -1.13,-3.01 -5.39,-5.67 -5.86,-3.65 -13.37,-3.45 -19.85,-1.3 -4.79,1.59 -6.99,4.67 -9.51,8.78 -2.3,3.77 -2.4,5.66 -2.4,10.17 0,1.79 0.62,3.97 1.2,5.28 0.72,1.63 1.8,2.49 3.09,3.77 0.92,0.9 0.84,0.78 1.53,1.9 0.93,1.49 0.19,0.85 1.78,1.65 6.42,3.25 4.37,3.69 7.35,-7.55 0.48,-1.82 1.2,-2.7 2.48,-4 1.95,-1.99 0.72,-1.78 4.06,-2.42 2.82,-0.54 2.58,-0.65 5.35,0.06 2.65,0.68 2.16,1.1 4.19,2.29 2.2,1.3 1.89,1.03 3.02,3.45 2.04,4.37 1.67,4.87 0.24,7l-3.81 0c-1.47,2.2 -4.65,11.07 -0.64,13.22 1.46,0.78 3.01,0.39 4.83,1.26 -0.56,6.75 -12.87,8.44 -14.33,1.37 -0.34,-1.66 -0.14,-1.96 -0.66,-3.54 -0.51,-1.56 -0.65,-1.67 -1.4,-2.79 -1.98,1.32 -2.93,2.62 -4.75,4.02 -3.28,2.53 -4.32,9.22 -3.61,13.1 0.36,1.96 4.28,6.63 1.01,5.84 -1.42,-0.34 -1.17,-0.74 -2.3,-1.5 -3.5,-2.32 -5.6,-5.25 -7.62,-6.48 -1.1,-0.67 -1.44,-1.01 -2.53,-1.66 -8.81,-5.28 -0.04,-6.7 -3.9,-13.25 -3.59,-6.1 -11.44,-6.1 -14.26,-0.3 -0.46,0.94 -1.29,1.84 -1.29,2.9 0,3.71 1.23,5.44 3.22,7.83 2.19,2.64 1.1,4.61 -0.06,7.9 -0.63,1.78 -1.23,3.37 -2.01,4.85 -2.82,-0.24 -3.31,-4.11 -9.65,-7.5 -8.77,-4.69 -5.97,1.89 -5.97,7.12 0,1.79 -1.25,4.51 -2.16,5.45 -0.91,0.93 -1.12,0.71 -2.56,1.27 -1.89,0.73 -0.98,0.94 -2.57,1.26l-3.4 -0.31c-2.25,-0.94 -5.7,-2.92 -5.7,-5.76 0,-3.9 8.11,0.43 5.48,-8.53 -0.62,-2.11 -1.6,-3.4 -2.13,-5.49 -0.67,-2.61 -1.36,-4.27 -4.49,-4.27 -5.34,0 -6.1,4.21 -6.1,-3.81 0,-2.4 0.79,-4.28 1.64,-5.98 2.62,-5.24 6.93,-9.58 13.84,-9.01 1.44,0.12 1.75,0.49 2.78,0.91 6.78,2.74 7.58,11.15 11.07,16.37 2.14,-1.03 2.6,-0.95 4.68,-2.94 1.43,-1.37 2.15,-2.63 3.14,-4.48 1.86,-3.49 3.61,-6.42 3.61,-11.63 0,-6.62 -3.16,-12.55 -6.77,-15.72 -4.79,-4.22 -10.94,-6.77 -17.62,-6.77 -1.76,0 -3.66,0.56 -5.56,0.92 -3.28,0.63 -7.12,2.14 -9.92,3.8 -3.03,1.8 -6.6,5.8 -8.22,8.93 -1.09,2.12 -2.34,5.42 -2.57,7.72 -0.46,4.68 -1.17,2.7 -1.17,9.49 0,5.52 1.52,10.41 1.52,16 -0.88,0.59 -1.24,1.03 -2.67,1.14 -9.24,-17.46 2.25,-35.39 -4.44,-49.67l-2.17 -3.93c-0.85,-1.58 -4.32,-4.89 -6.96,-5.62 -1.28,-0.35 -1.19,-0.3 -2.12,-0.92 -1.9,-1.27 -4.39,-2.22 -6.57,-2.96 -2.44,-0.83 -5.81,-2.93 -7.97,-0.64 -1,1.06 -0.28,0.5 -0.82,1.47 -0.92,1.68 0.01,0.12 -1.03,1.26l-1.72 2.85c-1.85,3.44 -3.24,5.38 -4.17,9.55 -0.77,3.46 -1.63,8.06 -0.02,11.54 1.17,2.55 1,3.85 3.02,6.1 2.06,2.31 0.97,1.9 4.62,5.29l10.22 11.12c1.76,2.66 4.22,4.67 5.81,7.53 0.73,1.32 6.27,10.84 2.88,10.84 -2.77,0 -2.69,-1.61 -4.04,-3.58 -1.49,-2.19 -2.43,-4.59 -4.07,-6.6 -6.16,-7.54 -14.15,-15.35 -24.66,-15.35 -3.97,0 -9.07,1.62 -12.35,3.66 -1.16,0.72 -0.58,0.59 -1.99,1.06 -3.39,1.11 -4.58,2.42 -7.1,4.72 -3.25,2.97 -1.77,2.43 -3.45,4.93 -0.58,0.86 -0.66,0.51 -1.3,1.75 -0.43,0.84 -1.43,3.78 -1.55,4.55 -0.79,4.91 -0.06,9.94 2.01,14.2 0.45,0.93 0.55,1 1,2.05 0.75,1.76 2.5,3.59 4.15,4.61 0.66,0.4 1.24,0.62 1.97,1.07 2.25,1.41 8.06,4.27 10.59,4.27 4.83,0 7.2,0.05 4.7,-5.08 -1.74,-3.56 -2.74,-8.78 -0.96,-12.52 0.87,-1.82 1.25,-3.45 2.61,-5.01l2.24 -1.95c2.78,-1.71 9.45,-2.34 12.87,-0.72l6.59 5.22c4.64,6.73 -4.43,4.03 -4.43,9.38 0,2.73 1.22,4.55 2.07,6.31 0.55,1.13 0.42,1.81 1.13,3.06 0.67,1.18 1.02,1.34 1.37,2.82 0.94,-0.02 3.04,-0.37 3.95,-0.62 1.13,-0.31 1.5,-0.76 2.55,-0.72 1,0.04 1.69,0.36 1.99,1.53 0.52,1.98 -1.68,6.8 -3.01,8.35 -3.15,3.68 -9.47,3.48 -12.57,-0.68 -0.54,-0.73 -1.45,-1.99 -1.85,-2.72l-1.73 -2.85c-2.77,0.65 -3.39,2.61 -4.58,4.95 -2.7,5.31 -1.52,8.04 -1.52,11.44 -1.69,0.39 -1.51,0.43 -2.9,-0.52 -1.36,-0.93 -1.62,-0.74 -2.81,-1.4 -1.33,-0.73 -2.11,-1.97 -3.48,-2.62 -0.94,-0.44 -0.66,-0.25 -1.49,-0.8 0.46,-6.04 1.07,-4.07 -0.7,-8.83 -1.26,-3.37 -3.48,-5.07 -7.4,-4.64 -3.37,0.36 -3.86,0.36 -5.73,2.31 -3.25,3.38 -3.48,9.12 0.22,12.21 3.37,2.82 4.74,1.62 3.03,7.04 -0.37,1.16 -0.33,1.55 -0.52,2.91l-1.8 7.73c-0.37,1.09 -0.65,1.33 -1.02,2.41 -0.8,2.36 -0.24,3.03 -2.85,3.63 -0.2,-2.35 -0.83,-4.37 -1.79,-6.6 -1.8,-4.15 -5.76,-6.18 -10.4,-6.37 -3.5,-0.15 -4.13,-1.08 -5.72,1.92 -0.07,0.66 5.84,8.09 0.46,12.28 -1.45,1.13 -4.01,1.44 -6.18,1.44 -2.76,0 -2.52,-0.56 -3.43,-2.29 2.62,-3.02 3.01,-4.54 1.16,-8.02 -0.95,-1.78 -2.51,-2.28 -3.92,-3.7 -4.27,-4.29 -4.43,1.05 -7.52,1.05 -3.03,0 -3.45,-7.43 -3.06,-9.54 0.87,-4.82 2.05,-5.61 5.42,-7.92 3.61,-2.47 5.75,-0.97 9.39,0.76 4.4,2.08 6.75,8.42 9.69,4.22 1.4,-2 1.43,-7.5 1.43,-10.38 0,-4.35 -2.94,-8.94 -5.43,-10.96l-5.5 -2.88c-4.9,-1.9 -10.76,-1.44 -15.48,0.38 -0.81,0.31 -1.1,0.57 -1.72,0.95l-4.87 3.14c-2.97,1.95 -2.2,4.1 -3.91,6.38 -1.4,1.87 -1.13,0.57 -1.76,3.58 -1.13,5.47 -1.44,5.5 -0.32,10.94 0.28,1.39 0.23,2.37 0.83,3.36l1.3 2.51c0.84,2.98 2.96,5.15 4.63,7.57 1.26,1.82 2.49,2.98 2.49,5.51 -2.53,0.59 -2.84,-0.56 -4.54,-2.32l-1.12 -1.55c-0.84,-1.14 -1.94,-1.6 -2.55,-2.4l-1.93 -3.41c-1.08,-1.55 -1,-1.31 -1.45,-3.5 -0.59,-2.82 -1.54,-5.27 -2.55,-7.74 -0.49,-1.21 -1.24,-2.32 -1.69,-3.64 -0.52,-1.53 -0.42,-2.44 -1.17,-3.79 -0.39,-0.71 -1.76,-2.35 -2.34,-3 -3.41,-3.91 -8.37,-6.59 -13.82,-6.79 -2.05,-0.07 -2.63,0.42 -4.94,0.4 -3.22,-0.02 -2.41,0.25 -4.58,0.76 0,2.16 0.25,2.64 1.13,3.83 2.5,3.37 8.81,8.9 12.3,12.47 1.04,1.06 2.35,1.58 3.49,2.6 0.58,0.52 0.23,0.2 0.57,0.57 0.46,0.49 0.74,0.85 1.27,1.4 2.98,3.04 7.38,6.82 9.87,9.94l7.28 7.58c3.13,2.75 2.59,3.01 6.31,5.89l4.11 3.51c4.09,4.93 7.1,8.32 12.19,12.58 0.93,0.78 1.39,1.64 2.35,2.61 2.54,2.58 4.55,5.13 7.55,7.31 3.96,2.87 1.67,6.67 3.78,11.08 1.69,3.54 3.72,1.46 5.96,1 2.19,-0.45 1.54,-0.37 3.07,-1.12 4.46,-2.19 7.31,-2.17 9.72,-3.24l6.15 -2.24c1.09,-0.46 1.66,-0.93 3.15,-1.42 2.13,-0.71 4.48,-1.22 6.49,-1.9 4.68,-1.57 7.84,-2.95 12.82,-4.32 3.04,-0.84 6.31,-2.64 9.31,-3.64 2.29,-0.76 4.2,-1.18 6.14,-2.24 5.48,-3 3.27,-1.65 9.35,-3.61l19.13 -6.78c2.63,-0.56 3.82,-1.69 6,-2.38 3.07,-0.98 6.83,-1.71 9.96,-3 4.01,-1.66 8.67,-2.73 12.7,-4.45 1.17,-0.5 1.65,-0.83 2.87,-1.32 1.04,-0.42 1.98,-0.72 3.18,-1.01 1.31,-0.32 2.54,-0.46 3.7,-0.87 0.97,-0.34 1.86,-0.86 2.77,-1.42l9.02 -3.94c3.25,-0.58 6.15,-2.38 9.29,-3.28 1.68,-0.48 1.88,-0.84 3.37,-1.2 3.57,-0.86 5.98,-2.14 9.29,-3.28l6.74 -2.03c1.78,-0.72 0.5,-0.74 2.83,-1.36l25.8 -8.88c2.02,-0.78 5.23,-0.96 5.23,-3.53 0,-7.52 -4.23,-7 -3.81,-11.78 0.5,-5.65 0.44,-7.95 1.37,-14.29 0.63,-4.35 -0.19,-6.77 1.33,-14.3 1.57,-7.78 1.45,-20 2.85,-28.78 0.38,-2.4 1.05,-4.71 1.26,-6.74l1.42 -14.2c0.2,-1.39 0.11,-2.27 0.14,-3.68l1.51 -10.68c0.29,-3.59 0.96,-5.69 -2.64,-5.69 -2.08,0 -5.08,3.1 -6.58,4.47 -0.93,0.85 -0.91,1.19 -1.71,2.1 -2.86,3.24 -4.67,5.27 -4.67,10.2z"/>
  </g>
 </g>
</svg>
